<svg xmlns="http://www.w3.org/2000/svg" id="Layer_1" data-name="Layer 1" viewBox="0 0 600 200"><defs><style>.cls-1{fill-rule:evenodd;fill:#fff;stroke-width:0}</style></defs><path fill="#fff" stroke-width="0" d="M236.03 87.89v2.54c0 3.04 2.19 5.07 6.03 5.07s6-2.03 6-5.07v-8.09c0-3.04-1.65-4.56-4.91-4.56h-.56V57.02c0-3.04-2.19-5.07-6-5.07s-6.03 2.03-6.03 5.07v20.76h-10.38V57.02c0-3.04-2.19-5.07-6-5.07s-6 2.03-6 5.07v25.83c0 3.02 2.19 5.04 6 5.04h21.86zm47.37-25.3c3.82 0 6-2.03 6-5.07s-2.19-5.07-6-5.07h-20.79c-3.82 0-6 2.03-6 5.07v25.33c0 3.02 2.19 5.04 6 5.04h21.32c3.82 0 6-2.03 6-5.04s-2.19-5.07-6-5.07h-15.29v-3.04h10.38c3.28 0 5.47-2.03 5.47-4.56s-2.19-4.54-5.47-4.54h-10.38V62.6h14.76zm26.85-5.58c0-3.04-2.19-5.07-6.03-5.07s-6 2.03-6 5.07v26.34c0 3.02 2.19 5.04 6 5.04s6.03-2.03 6.03-5.04v-8.11h10.91v8.11c0 3.02 2.19 5.04 6.03 5.04s6-2.03 6-5.04V57.01c0-3.04-2.19-5.07-6-5.07s-6.03 2.03-6.03 5.07v8.62h-10.91v-8.62zm42.7 5.58v20.76c0 3.02 2.19 5.04 6 5.04s6.03-2.03 6.03-5.04V62.59h6c3.82 0 6-2.03 6-5.07s-2.19-5.07-6-5.07h-24.04c-3.84 0-6.03 2.03-6.03 5.07s2.19 5.07 6.03 5.07h6zm43.79 5.55v-6.56h4.91c2.75 0 4.38 1.52 4.38 3.28s-1.63 3.28-4.38 3.28h-4.91zm4.91 9.12c10.94 0 16.95-5.58 16.95-12.41s-6-12.41-16.95-12.41h-10.91c-3.84 0-6 2.03-6 5.07v25.83c0 3.02 2.16 5.04 6 5.04s6-2.03 6-5.04v-6.08h4.91zm-170.26 63.87c3.28 0 5.2-1.79 6.56-5.07l4.11-9.61h.53l2.46 13.16c.56 3.04 2.75 5.07 6.3 5.07s5.74-2.03 5.74-5.07c0-2.03-.56-4.56-.56-4.56l-3.82-21.27c-.61-3.55-3.28-6.06-7.93-6.06-4.11 0-6.62 2.27-8.19 6.06l-4.94 11.85h-.53l-4.91-11.85c-1.65-3.79-4.11-6.06-8.22-6.06-4.64 0-7.26 2.51-7.93 6.06l-3.82 21.27s-.56 2.54-.56 4.56c0 3.04 2.19 5.07 5.76 5.07s5.74-2.03 6.27-5.07l2.46-13.16h.56l4.08 9.61c1.33 3.28 3.28 5.07 6.56 5.07zm47.34-13.67 3.02-7.61h.56l2.99 7.61h-6.56zm-2.46 9.1h11.48l1.39 3.04c1.36 3.04 3.55 5.07 6.54 5.07 3.58 0 6.03-2.3 6.03-5.07 0-1.52-1.39-4.56-1.39-4.56l-8.73-21.27c-1.6-3.79-4.11-6.06-9.58-6.06s-7.93 2.27-9.55 6.06l-8.75 21.27s-1.36 3.04-1.36 4.56c0 2.78 2.46 5.07 6 5.07 3.02 0 5.2-2.03 6.56-5.07l1.36-3.04zm38.35-17.72v20.76c0 3.04 2.19 5.07 6 5.07s6-2.03 6-5.07v-20.76h6.03c3.82 0 6-2.03 6-5.07s-2.19-5.04-6-5.04h-24.07c-3.82 0-6 2-6 5.04s2.19 5.07 6 5.07h6.03zm43.8 5.58v-6.59h4.91c2.75 0 4.38 1.52 4.38 3.28s-1.63 3.31-4.38 3.31h-4.91zm4.91 9.1c10.94 0 16.95-5.58 16.95-12.41s-6-12.38-16.95-12.38h-10.94c-3.82 0-6 2-6 5.04v25.83c0 3.04 2.19 5.07 6 5.07s6.03-2.03 6.03-5.07v-6.08h4.91zm36.42-6.06 2.99-7.61h.56l3.02 7.61h-6.56zm-2.45 9.1h11.48l1.36 3.04c1.36 3.04 3.55 5.07 6.56 5.07 3.55 0 6-2.3 6-5.07 0-1.52-1.36-4.56-1.36-4.56l-8.75-21.27c-1.57-3.79-4.08-6.06-9.55-6.06s-7.93 2.27-9.58 6.06l-8.73 21.27s-1.39 3.04-1.39 4.56c0 2.78 2.46 5.07 6.03 5.07 2.99 0 5.18-2.03 6.54-5.07l1.39-3.04zm30.66-6.59c0 8.62 7.1 15.18 18.31 15.18 10.11 0 15.59-5.04 15.59-8.59 0-2.78-1.92-4.56-6-4.56-4.38 0-4.94 3.55-9.58 3.55-3.55 0-6-2.27-6-5.58v-7.07c0-3.31 2.46-5.58 6-5.58 4.11 0 4.64 3.55 9.02 3.55 4.11 0 6.03-1.79 6.03-4.56 0-3.55-5.47-8.59-15.05-8.59-11.21 0-18.31 6.56-18.31 15.18v7.07zm77.15-7.07c0-8.62-7.1-15.18-18.31-15.18s-18.33 6.56-18.33 15.18v7.07c0 8.62 7.13 15.18 18.33 15.18s18.31-6.56 18.31-15.18v-7.07zm-12.3 7.07c0 4.06-2.72 6.59-6 6.59s-6.03-2.54-6.03-6.59v-7.07c0-4.06 2.75-6.59 6.03-6.59s6 2.54 6 6.59v7.07zm34.24-12.65h4.91c2.19 0 3.28 1.01 3.28 2.27s-1.09 2.3-3.28 2.3h-4.91v-4.56zm0 12.65h6.54c2.48 0 3.84 1.28 3.84 2.8s-1.36 2.78-3.84 2.78h-6.54v-5.58zm-6.03-21.24c-3.82 0-5.95 2-6 5.04v25.33c0 3.04 2.19 5.07 6 5.07h12.57c11.5 0 16.41-4.56 16.41-10.38 0-6.83-8.19-8.35-8.19-8.35v-.51s6-1.52 6-6.83-4.38-9.37-15.85-9.37h-10.94z"/><path d="m119.54 132.58 68.69-45.47c.72-.51.19-7.58-2.24-7.87l-15.8-3.82c-1.17-.13-2.3.45-3.23 1.09l-50.3 33.44c-1.2.83-2.4.64-3.74.21-13.96-4.54-27.57-8.83-41.55-13.29-.8-.27-2.59-.53-3.34-.13l-15.56 9.47c-1.33.91-.93 7.37 1.71 8.57l59.56 18.55c2.27.72 3.82.56 5.79-.75zm18.98-51.21c7.86-5.03 15.48-10.4 22.97-15.67 7-4.92 14.23-10.02 21.52-14.75 1.56-1 2.13-1.45 2.37-2.05l-.4-.09-56.02-11.65c-3.42-.72-8.86-.46-11.93 1.33L51.78 76.32c11.36 4.87 25.76 9.12 39.39 12.79l47.35-7.73z" class="cls-1"/><path d="M111.67 103.86c1.02.38 4.73.19 6.41-1.04l68.12-44.24c.68-.46.95-4.57.72-7.24-.62.66-1.43 1.2-2.44 1.85-7.25 4.71-14.46 9.79-21.44 14.7-14.05 9.89-28.6 20.13-44.26 27.95-1.99.99-3.52 1.44-5.26 1.44-1.21 0-2.54-.23-4.21-.66l-4.02-1.04C87.76 91.04 65.98 85.4 50.12 78.5c-.34 2.54.08 7.31 1.92 7.98l59.64 17.37z" class="cls-1"/><path d="M109.98 94.02c3.4.9 4.83.78 7.6-.59 3.02-1.51 6.02-3.11 8.97-4.79l-23.67 3.55c1.04.27 2.06.53 3.07.8l4.02 1.04zm78.84 14.7-15.8-3.84c-1.17-.13-2.3.45-3.26 1.09l-50.28 33.47c-1.2.8-2.4.61-3.74.19-13.98-4.54-27.57-8.81-41.55-13.29-.8-.24-2.62-.53-3.34-.13l-15.58 9.47c-1.31.91-.91 7.37 1.71 8.57l59.59 18.57c2.27.69 3.82.53 5.79-.77l68.66-45.47c.75-.51.21-7.58-2.21-7.85z" class="cls-1"/></svg>