<svg xmlns="http://www.w3.org/2000/svg" data-name="Layer 2" viewBox="0 0 524.74 141.39"><path fill="#fff" d="M98.21 74.88h53.53c.18-1.36.26-2.75.26-4.17 0-19.48-15.78-35.26-35.23-35.26H80.41v4.15H61.72v4.15h32.34a35.598 35.598 0 0 0-6.51 7.23v.01H65.98v4.15H49.22v4.15h34.19a33.35 33.35 0 0 0-1.62 7.25H61.73v4.15H43.04v4.15h38.75c.28 2.52.82 4.94 1.62 7.25H65.98v4.15H49.22v4.15h38.34c1.85 2.73 4.04 5.17 6.53 7.25H80.43v4.15H61.74v4.15h55.06c15.06 0 27.9-9.42 32.94-22.7h-9.14c-4.5 8.54-13.49 14.36-23.81 14.36-14.85 0-26.89-12.04-26.89-26.89s12.04-26.89 26.89-26.89c13.43 0 24.55 9.83 26.56 22.7H98.23v8.36zm100.37 8.57L179.5 47.32h-11.4v46.75h7.96V57.86l19.12 36.21h6.79l19.12-36.21v36.21h7.96V47.32l-11.4.01-19.07 36.12zm84.35-36.5c-12.69-.57-25.39-.57-38.09 0a9.035 9.035 0 0 0-8.63 8.6c-.5 10.05-.5 20.24 0 30.3a9.01 9.01 0 0 0 8.63 8.59c6.32.29 12.73.44 19.04.44s12.73-.15 19.04-.44a9.033 9.033 0 0 0 8.63-8.59c.5-10.05.5-20.24 0-30.3a9.027 9.027 0 0 0-8.63-8.6zm.68 38.5c-.01.27-.13.53-.32.72-.19.19-.45.31-.72.32-12.38.57-24.96.57-37.36 0-.27-.01-.52-.12-.71-.31-.19-.19-.31-.45-.32-.72-.49-9.79-.49-19.71 0-29.5.01-.27.13-.53.32-.72.19-.2.45-.31.72-.32 6.22-.28 12.51-.43 18.68-.43s12.46.15 18.68.43c.27.01.53.12.72.32.19.19.31.45.32.72.49 9.79.49 19.72 0 29.5zm13.62-30.16h18.09v38.78h7.96V55.29h18.09v-7.97h-44.14v7.97zm51.08-7.97h7.96v46.74h-7.96zm63.12-.37c-12.69-.57-25.39-.57-38.09 0a9.035 9.035 0 0 0-8.63 8.6c-.5 10.05-.5 20.24 0 30.3a9.01 9.01 0 0 0 8.63 8.59c6.32.29 12.73.44 19.04.44s12.73-.15 19.04-.44a9.033 9.033 0 0 0 8.63-8.59c.5-10.05.5-20.24 0-30.3a9.027 9.027 0 0 0-8.63-8.6zm.68 38.5c-.01.27-.13.53-.32.72-.19.19-.45.31-.72.32-12.39.57-24.96.57-37.36 0-.27-.01-.52-.12-.71-.31-.19-.19-.31-.45-.32-.72-.49-9.79-.49-19.71 0-29.5.01-.27.13-.53.32-.72.19-.2.45-.31.72-.32 6.22-.28 12.51-.43 18.68-.43s12.46.15 18.68.43c.27.01.53.12.72.32.19.19.31.45.32.72.49 9.79.49 19.72 0 29.5zm61.66-38.13v38.47l-35.36-38.47h-11.18v46.75h7.97v-38.2l35.36 38.2h11.17V47.32h-7.96z"/></svg>