<svg xmlns="http://www.w3.org/2000/svg" data-name="Layer 1" viewBox="0 0 600 200"><path fill="#fff" d="M116.81 80.44v21.91c0 .45-.36.81-.81.81h-10.49c-.45 0-.81-.36-.81-.81V59.56c0-1.16.46-2.27 1.28-3.09l15.97-15.97a3.11 3.11 0 0 1 2.2-.91h40.28c.45 0 .81.36.81.81v10.49c0 .45-.36.81-.81.81h-46.26c-.76 0-1.37.61-1.37 1.37v20.56c0 .84 1.02 1.27 1.62.67l6.97-6.97c.38-.38.89-.59 1.43-.59h25.5c.45 0 .81.36.81.81v10.58c0 .45-.36.81-.81.81H118.3c-.83 0-1.5.67-1.5 1.5zm95.63-40.86h-24.75c-.8 0-1.56.32-2.13.88l-16.41 16.41a3.02 3.02 0 0 0-.88 2.13v24.76c0 .8.32 1.56.88 2.13l16.41 16.4c.56.56 1.33.88 2.13.88h24.75c.8 0 1.56-.32 2.13-.88l16.4-16.4c.56-.56.88-1.33.88-2.13V59c0-.8-.32-1.56-.88-2.13l-16.41-16.41a3.02 3.02 0 0 0-2.13-.88zm5.65 51.47h-36.06c-.91 0-1.65-.74-1.65-1.65V53.34c0-.91.74-1.65 1.65-1.65h36.06c.91 0 1.65.74 1.65 1.65V89.4c0 .91-.74 1.65-1.65 1.65zM381.76 51.7h40c.45 0 .81-.36.81-.81V40.41c0-.45-.36-.81-.81-.81h-34.3c-.06 0-.12 0-.18.01h-.06c-.04 0-.09.01-.13.01h-.04c-.09.01-.18.03-.27.06-.53.12-1.01.4-1.41.79l-16.41 16.4c-.14.14-.26.29-.37.45-.09.13-.17.28-.23.42-.04.07-.07.15-.09.23-.02.05-.04.1-.05.15-.09.28-.13.57-.13.87v24.76c0 .3.04.59.13.87.01.05.03.1.05.15.03.08.06.15.09.23.06.14.14.29.23.42.11.16.23.31.37.45l16.41 16.4c.39.39.88.67 1.41.79l.27.06h.04c.04 0 .09.01.13.01h.06c.06 0 .12.01.18.01h34.3c.45 0 .81-.36.81-.81V91.85c0-.45-.36-.81-.81-.81h-40a1.65 1.65 0 0 1-1.57-1.65v-8.96c0-.83.67-1.5 1.5-1.5h30.99c.45 0 .81-.36.81-.81V67.53c0-.45-.36-.81-.81-.81h-22.47c-.54 0-1.05.21-1.43.59l-6.97 6.97c-.59.59-1.62.17-1.62-.67V53.33c0-.88.69-1.61 1.57-1.65zm-80.94-.67-11.11-11.11c-.21-.21-.51-.34-.81-.34h-46.82c-.63 0-1.15.51-1.15 1.15v61.29c0 .63.51 1.15 1.15 1.15h9.82c.63 0 1.15-.51 1.15-1.15V81.35a2.4 2.4 0 0 1 2.4-2.4h32.43c.83 0 1.5.67 1.5 1.5v21.58c0 .63.51 1.15 1.15 1.15h9.82c.63 0 1.15-.51 1.15-1.15V86.27c0-.81-.32-1.58-.89-2.15L294 77.51a2.24 2.24 0 0 1 0-3.16l6.84-6.84c.42-.42.66-1 .66-1.6V52.64c0-.6-.24-1.17-.66-1.6zm-13.16 15.8h-24.41c-.71 0-1.4.28-1.9.79l-6.31 6.31c-.73.73-1.98.21-1.98-.82v-19.7c0-.95.77-1.72 1.72-1.72h32.9c.95 0 1.72.77 1.72 1.72v11.71c0 .95-.77 1.72-1.72 1.72zm15.2-25.87 9.6 9.6c.72.72 1.7 1.13 2.72 1.13h14.6c1.09 0 1.97.88 1.97 1.97v48.04c0 .81.65 1.46 1.46 1.46h9.2c.81 0 1.46-.65 1.46-1.46V53.66c0-1.09.88-1.97 1.97-1.97h14.6c1.02 0 2-.41 2.72-1.13l9.6-9.6c.51-.51.15-1.38-.57-1.38h-68.76c-.72 0-1.08.87-.57 1.38zm191.92 49.57-18.07-18.07c-.61-.61-.61-1.6 0-2.21l18.03-18.03c.33-.33.52-.79.53-1.26l.04-10.55c0-.46-.37-.83-.82-.83h-3.41c-.43 0-.84.17-1.14.47l-25.7 25.7c-.52.52-1.36.52-1.88 0l-25.7-25.7c-.3-.3-.71-.47-1.14-.47h-3c-.45 0-.82.37-.82.82v10.54c0 .48.19.93.53 1.27l18.07 18.07c.61.61.61 1.6 0 2.21l-18.03 18.03c-.33.33-.52.79-.53 1.26l-.04 10.55c0 .46.37.83.82.83h3.41c.43 0 .84-.17 1.14-.47l25.7-25.7c.52-.52 1.36-.52 1.88 0l25.7 25.7c.3.3.71.47 1.14.47h3c.45 0 .82-.37.82-.82V91.8c0-.48-.19-.93-.53-1.27zm-256.91 45.63h-9.27v24.05h-5.59v-24.05h-9.27v-4.94h24.13v4.94zm37.34 24.26c-2.12 0-4.05-.41-5.78-1.23-1.73-.82-3.21-1.93-4.45-3.33-1.24-1.4-2.2-2.98-2.88-4.74-.68-1.76-1.02-3.56-1.02-5.41s.36-3.78 1.08-5.53c.72-1.76 1.72-3.32 2.98-4.69a14.35 14.35 0 0 1 4.49-3.27c1.73-.8 3.63-1.2 5.7-1.2s4.01.42 5.74 1.27c1.73.84 3.2 1.97 4.43 3.39 1.23 1.42 2.18 2.99 2.86 4.74.68 1.74 1.02 3.54 1.02 5.39s-.35 3.74-1.06 5.49c-.71 1.76-1.69 3.32-2.96 4.7-1.27 1.37-2.76 2.46-4.49 3.25s-3.61 1.18-5.65 1.18zm-8.41-14.7c0 1.25.19 2.46.57 3.63.38 1.17.93 2.21 1.65 3.12s1.61 1.63 2.65 2.16c1.05.53 2.24.8 3.57.8s2.57-.28 3.63-.84a7.9 7.9 0 0 0 2.65-2.25c.71-.94 1.25-1.99 1.61-3.14.37-1.16.55-2.32.55-3.49 0-1.25-.2-2.46-.59-3.61-.4-1.16-.95-2.19-1.67-3.1a7.937 7.937 0 0 0-2.65-2.16c-1.05-.53-2.22-.8-3.53-.8-1.39 0-2.61.28-3.65.84-1.05.56-1.93 1.3-2.63 2.22-.71.93-1.24 1.96-1.61 3.1s-.55 2.31-.55 3.51zm45.7 14.49v-28.99h12.82c1.33 0 2.57.27 3.69.82 1.13.55 2.11 1.28 2.94 2.21.83.93 1.47 1.96 1.92 3.1.45 1.14.67 2.31.67 3.51s-.21 2.4-.63 3.53a8.703 8.703 0 0 1-1.82 2.96 8.36 8.36 0 0 1-2.78 1.96l6.61 10.9h-6.21l-5.96-9.72h-5.63v9.72h-5.63zm5.64-14.66h7.06c.71 0 1.33-.21 1.88-.63.54-.42.98-.99 1.31-1.69.33-.71.49-1.5.49-2.37 0-.92-.19-1.74-.57-2.43-.38-.69-.86-1.25-1.45-1.65-.59-.41-1.22-.61-1.9-.61h-6.82v9.39zm57.8-.24v4.12h5.84v1.98c-1.06 1.23-2.17 2.2-3.37 2.88-1.35.76-2.76 1.14-4.23 1.14-1.25 0-2.4-.25-3.43-.76-1.03-.5-1.94-1.19-2.72-2.06s-1.37-1.89-1.8-3.06c-.42-1.17-.63-2.45-.63-3.84 0-1.31.2-2.54.59-3.71.39-1.17.96-2.21 1.69-3.1.73-.9 1.61-1.61 2.61-2.12 1.01-.52 2.12-.78 3.35-.78 1.55 0 2.99.38 4.31 1.14 1.32.76 2.35 1.87 3.08 3.31l4.2-3.1c-.98-1.91-2.44-3.44-4.39-4.59-1.95-1.16-4.28-1.74-7-1.74-2.01 0-3.88.38-5.59 1.14-1.71.76-3.21 1.81-4.49 3.14-1.28 1.33-2.27 2.88-2.98 4.63-.71 1.76-1.06 3.63-1.06 5.61 0 2.1.35 4.04 1.06 5.84.71 1.8 1.69 3.37 2.96 4.72s2.74 2.4 4.41 3.16c1.67.76 3.45 1.14 5.33 1.14 3.06 0 5.75-1.18 8.08-3.52v3.31h4.65v-14.9h-10.49zm-271.24-4.83h93.5v4.82h-93.5zm297.1 0h93.5v4.82h-93.5z"/></svg>