<svg xmlns="http://www.w3.org/2000/svg" id="Layer_1" data-name="Layer 1" viewBox="0 0 600 200"><defs><style>.cls-1{fill:#fff;stroke-width:0}</style></defs><path d="m309.33 44.84-12.6 45.23c-2.82 9.9-5.76 19.55-8.85 29.48-1.34 3.74-2.68 11.77-6.57 14.26a4.64 4.64 0 0 1-7.51-2.95l-.27-.51c-6.43-14.84-11.53-29.67-15.82-45.23-3.89 25.95-6.84 51.14-11.13 77.13-1.07 6.13-10.59 5.5-9.52-.76 5.76-32.95 8.71-66.06 14.48-99.01.67-3.41 4.02-4.78 6.57-3.8 2.28.2 3.62 1.42 4.16 3.52 3.89 18.95 9.52 36.95 16.49 54.96l1.34-4.27c3.08-9.93 5.9-19.43 8.71-29.33 3.75-13.2 7.24-26.38 10.86-39.57 1.74-5.92 11.13-5.42 9.65.88zm8.31 84.11c-8.71 1.85-17.43-1.66-17.83-11.14-.4-10.15 6.3-21.21 14.07-27.66l.27-.29c-2.14-3.43 2.01-9.7 5.9-6.83 14.21 9.59 22.79 40.46-2.41 45.92zm2.27-33.45c-.4.71-.8 1.41-1.47 1.87-4.16 3.45-6.97 8.4-8.45 13.35-1.07 2.91-2.41 7.32.54 9.2 2.01 1.3 6.3.51 8.31-.61 10.19-4.93 6.57-16.67 1.07-23.82zm54.43 18.2c-6.03 8.98-17.56 14.84-27.61 11.85-22.25-6.46-2.28-48.59 17.69-41.12 1.61-2.15 4.42-3.08 6.57-.99 7.91 7.47 9.79 20.04 3.35 30.26zm-8.31-22.05c-1.47 1.34-3.08 2.02-5.09 1.12-9.52-3.98-25.47 27.34-5.9 24.52 12.87-1.82 18.1-17.03 10.99-25.65zm34.31-6.28c-6.84 4.9-9.38 11.96-9.92 19.92-.4 3.65.67 7.18 2.82 7.39 2.55.31 3.89-2.09 4.96-4.87 4.16-10.42 4.29-22.23 5.23-32.91.94-13.49 1.74-26.96 2.28-40.42 0-5.63 9.25-5.38 8.85.28-.4 10.36-.67 20.57-1.61 30.97-1.07 15.24-.27 34.61-8.45 48.88-5.36 9.19-17.16 12.93-21.71 2.34-5.5-11.84 1.21-30.13 11.8-38.18 5.09-3.27 10.32 2.97 5.76 6.59zm27.88-34.12c-2.14 21.64-2.55 42.45-1.61 63.81.4 5.86-8.58 7.07-8.98 1.34-.94-22.3-.4-43.93 1.88-66.12.4-5.8 9.12-4.84 8.71.96zm14.6 53.11c1.34 4.3 4.29 9 8.18 3.69 3.75-4.76 10.19 1.1 6.43 5.86-9.38 11.96-21.71 2.74-23.86-8.32-.13-.26-.13-.52-.13-.93-1.21-.56-2.28-1.4-3.22-2.53-2.82-3.37.54-8.22 3.89-8.12 2.01-7.69 6.7-14.54 13.81-18.26 4.16-2.11 9.65-2.74 12.87.73 3.75 4.22 1.21 10.62-1.61 15.16-3.35 4.72-9.65 10.24-16.35 12.72zm10.46-21.3c-1.07-.98-5.5 3.44-5.76 3.73-2.28 2.48-3.75 5.16-4.56 8.05 3.22-1.76 6.43-4.73 7.91-6.47.67-.73 3.89-4.37 2.41-5.31zm37.8-1.37c-1.21-.29-4.83 4.05-5.9 4.82-2.01 2.19-3.89 4.37-5.09 7.02-2.68 5.6-2.81 12.05-3.35 18.13-.4 5.13-8.58 4.92-8.98-.4-.4-11.09-.4-21.81.54-32.62.4-5.8 9.38-4.19 8.98 1.61 0 .4 0 .8-.13.95 3.89-4.64 9.38-9.15 15.15-8.59 5.63.57 4.56 9.65-1.21 9.09zm17.69-5.6c-6.3-.51 4.29 15.84 4.69 16.6 1.47 2.95 2.14 6.11 1.07 9.82-2.55 7.6-10.32 11.78-17.69 12.3-5.76.51-6.43-8.41-.8-8.91s10.99-2.19 8.44-9.87c-.54-1.69-2.28-3.28-3.22-4.67-2.14-3.7-3.62-7.45-3.22-11.78.4-7.01 5.09-12.65 12.2-12.62 5.76.16 4.16 9.28-1.47 9.11zM146.03 150.1c-31.02 0-56.27-25.24-56.27-56.27h-4.83c0 33.69 27.41 61.1 61.09 61.1s61.1-27.41 61.1-61.1h-4.83c0 31.03-25.24 56.27-56.27 56.27z" class="cls-1"/><path d="M146.03 140.26c25.6 0 46.43-20.83 46.43-46.42h-4.83c0 22.94-18.66 41.59-41.6 41.59s-41.59-18.66-41.59-41.6h-4.83c0 25.6 20.83 46.43 46.42 46.43z" class="cls-1"/><path d="M177.79 64.5c0-1.3-.09-2.58-.24-3.84l42.31-8.46-.95-4.74-42.31 8.46c-3.75-13.36-16.03-23.18-30.57-23.18-17.51 0-31.75 14.25-31.75 31.75v29.63c.16 17.38 14.33 31.47 31.75 31.47s31.76-14.25 31.76-31.75h-4.83c0 14.85-12.08 26.93-26.93 26.93s-26.93-12.08-26.93-26.93V64.5c0-14.85 12.08-26.93 26.93-26.93 12.2 0 22.52 8.16 25.82 19.3l-9.73 1.94c-2.35-6.63-8.67-11.4-16.09-11.4-9.42 0-17.08 7.66-17.08 17.08v29.34h4.83V64.49c0-6.76 5.5-12.25 12.25-12.25 5.08 0 9.45 3.11 11.31 7.53l-11.78 2.36.95 4.74 11.78-2.36v12.24h-12.26v4.83h73.35v-4.83h-41.59V64.49zm-14.72-.95 9.73-1.95c.1.95.16 1.91.16 2.89v12.26h-9.84V64.49c0-.32-.03-.63-.05-.94zm9.89 101.22h-53.85v-12.25h-4.83v17.08h63.51v-17.08h-4.83v12.25z" class="cls-1"/></svg>