<svg xmlns="http://www.w3.org/2000/svg" data-name="Layer 2" viewBox="0 0 32 32"><defs><linearGradient id="a" x1="0" x2="32" y1="16" y2="16" gradientUnits="userSpaceOnUse"><stop offset=".29" stop-color="#9543ff"/><stop offset="1" stop-color="#37ffe2"/></linearGradient></defs><path fill="url(#a)" d="M16.21 17.23h15.72c.05-.4.08-.81.08-1.22 0-5.72-4.63-10.35-10.34-10.35H10.99v1.22H5.5V8.1H15c-.73.61-1.38 1.33-1.91 2.12H6.76v1.22H1.82v1.22h10.04c-.23.68-.39 1.39-.48 2.13H5.49v1.22H0v1.22h11.38c.08.74.24 1.45.48 2.13H6.74v1.22H1.82v1.22h11.26c.54.8 1.19 1.52 1.92 2.13h-4.01v1.22H5.5v1.22h16.17c4.42 0 8.19-2.77 9.67-6.66h-2.68a7.895 7.895 0 0 1-6.99 4.22c-4.36 0-7.9-3.54-7.9-7.9s3.54-7.9 7.9-7.9a7.9 7.9 0 0 1 7.8 6.66H16.22v2.46z"/></svg>